G04 #@! TF.GenerationSoftware,KiCad,Pcbnew,5.0.1-33cea8e~68~ubuntu16.04.1*
G04 #@! TF.CreationDate,2019-02-13T12:33:41-05:00*
G04 #@! TF.ProjectId,RS485SPIConverter,5253343835535049436F6E7665727465,rev?*
G04 #@! TF.SameCoordinates,Original*
G04 #@! TF.FileFunction,Copper,L2,Bot,Signal*
G04 #@! TF.FilePolarity,Positive*
%FSLAX46Y46*%
G04 Gerber Fmt 4.6, Leading zero omitted, Abs format (unit mm)*
G04 Created by KiCad (PCBNEW 5.0.1-33cea8e~68~ubuntu16.04.1) date Wed 13 Feb 2019 12:33:41 PM EST*
%MOMM*%
%LPD*%
G01*
G04 APERTURE LIST*
G04 #@! TA.AperFunction,BGAPad,CuDef*
%ADD10C,1.500000*%
G04 #@! TD*
G04 #@! TA.AperFunction,ViaPad*
%ADD11C,0.400000*%
G04 #@! TD*
G04 #@! TA.AperFunction,Conductor*
%ADD12C,1.000000*%
G04 #@! TD*
G04 #@! TA.AperFunction,Conductor*
%ADD13C,0.400000*%
G04 #@! TD*
G04 #@! TA.AperFunction,Conductor*
%ADD14C,0.200000*%
G04 #@! TD*
G04 APERTURE END LIST*
D10*
G04 #@! TO.P,TP5,1*
G04 #@! TO.N,GND*
X35560000Y-11684000D03*
G04 #@! TD*
G04 #@! TO.P,TP1,1*
G04 #@! TO.N,RESET*
X35560000Y-16764000D03*
G04 #@! TD*
G04 #@! TO.P,TP2,1*
G04 #@! TO.N,SWCLK*
X35560000Y-19304000D03*
G04 #@! TD*
G04 #@! TO.P,TP3,1*
G04 #@! TO.N,SWDIO*
X35560000Y-21844000D03*
G04 #@! TD*
G04 #@! TO.P,TP4,1*
G04 #@! TO.N,+3V3*
X35560000Y-14224000D03*
G04 #@! TD*
D11*
G04 #@! TO.N,GND*
X29400000Y-16550000D03*
X26550000Y-16550000D03*
X29500000Y-13150000D03*
X29550000Y-11950000D03*
X27650000Y-13050000D03*
X27600000Y-11900000D03*
X23000000Y-9950000D03*
X23000000Y-9500000D03*
X23000000Y-9050000D03*
X23000000Y-8550000D03*
X7150000Y-10300000D03*
X13007600Y-15250000D03*
X13007600Y-13857600D03*
X13000000Y-14800000D03*
X13000000Y-14350000D03*
X7000000Y-9850000D03*
X7000000Y-9400000D03*
X7000000Y-8950000D03*
X7000000Y-6050000D03*
X7000000Y-5550000D03*
X7000000Y-5100000D03*
X7000000Y-4650000D03*
X7000000Y-4150000D03*
X7000000Y-3700000D03*
X7000000Y-3250000D03*
X18415503Y-17050000D03*
X18715503Y-17350000D03*
X19015503Y-17650000D03*
X19315503Y-17950000D03*
X22750000Y-14450000D03*
X25050000Y-13300000D03*
X25030000Y-11770000D03*
X28500000Y-12500000D03*
X32500000Y-13300000D03*
X33350000Y-16000000D03*
X28000000Y-18000000D03*
X13007600Y-20047960D03*
X13007600Y-19568160D03*
X13007600Y-19085560D03*
X13007600Y-18658840D03*
X26522302Y-19547880D03*
X29470420Y-19600810D03*
G04 #@! TO.N,+3V3*
X29750000Y-22500000D03*
X29250000Y-22500000D03*
X28750000Y-22500000D03*
X23750000Y-13499992D03*
X23750000Y-14000000D03*
X23750000Y-14500000D03*
X34036000Y-14198600D03*
G04 #@! TO.N,RESET*
X24892000Y-17272000D03*
G04 #@! TO.N,SWCLK*
X24714200Y-18694400D03*
G04 #@! TO.N,SWDIO*
X24638000Y-19304000D03*
G04 #@! TD*
D12*
G04 #@! TO.N,GND*
X8950000Y-12100000D02*
X7150000Y-10300000D01*
X11250000Y-12100000D02*
X8950000Y-12100000D01*
X13007600Y-13857600D02*
X13007600Y-13857600D01*
X13007600Y-13857600D02*
X11250000Y-12100000D01*
D13*
G04 #@! TO.N,+3V3*
X23750000Y-13500000D02*
X23750000Y-14000000D01*
X29250000Y-22500000D02*
X29750000Y-22500000D01*
X28750000Y-22500000D02*
X29250000Y-22500000D01*
X23750000Y-20250000D02*
X26000000Y-22500000D01*
X26000000Y-22500000D02*
X28750000Y-22500000D01*
X23750000Y-14000000D02*
X23750000Y-20250000D01*
D14*
X34061400Y-14224000D02*
X34036000Y-14198600D01*
X35560000Y-14224000D02*
X34061400Y-14224000D01*
G04 #@! TO.N,RESET*
X34810001Y-17513999D02*
X34302001Y-17513999D01*
X35560000Y-16764000D02*
X34810001Y-17513999D01*
X34302001Y-17513999D02*
X34036000Y-17780000D01*
X34036000Y-17780000D02*
X28956000Y-17780000D01*
X28448000Y-17272000D02*
X24892000Y-17272000D01*
X28956000Y-17780000D02*
X28448000Y-17272000D01*
G04 #@! TO.N,SWCLK*
X24834811Y-18573789D02*
X24714200Y-18694400D01*
X24854599Y-18554001D02*
X24834811Y-18573789D01*
X35560000Y-19304000D02*
X34810001Y-18554001D01*
X34810001Y-18554001D02*
X24854599Y-18554001D01*
G04 #@! TO.N,SWDIO*
X34810001Y-21094001D02*
X34810001Y-20814601D01*
X35560000Y-21844000D02*
X34810001Y-21094001D01*
X34810001Y-20814601D02*
X32969200Y-18973800D01*
X32969200Y-18973800D02*
X25781000Y-18973800D01*
X25450800Y-19304000D02*
X24638000Y-19304000D01*
X25781000Y-18973800D02*
X25450800Y-19304000D01*
G04 #@! TD*
G04 #@! TO.N,GND*
G36*
X36600001Y-13991001D02*
X36450147Y-13629223D01*
X36154777Y-13333853D01*
X35768858Y-13174000D01*
X35351142Y-13174000D01*
X34965223Y-13333853D01*
X34669853Y-13629223D01*
X34589174Y-13824000D01*
X34368507Y-13824000D01*
X34319227Y-13774720D01*
X34135456Y-13698600D01*
X33936544Y-13698600D01*
X33752773Y-13774720D01*
X33612120Y-13915373D01*
X33536000Y-14099144D01*
X33536000Y-14298056D01*
X33612120Y-14481827D01*
X33752773Y-14622480D01*
X33936544Y-14698600D01*
X34135456Y-14698600D01*
X34315557Y-14624000D01*
X34589174Y-14624000D01*
X34669853Y-14818777D01*
X34965223Y-15114147D01*
X35351142Y-15274000D01*
X35768858Y-15274000D01*
X36154777Y-15114147D01*
X36450147Y-14818777D01*
X36600001Y-14456999D01*
X36600001Y-16531002D01*
X36450147Y-16169223D01*
X36154777Y-15873853D01*
X35768858Y-15714000D01*
X35351142Y-15714000D01*
X34965223Y-15873853D01*
X34669853Y-16169223D01*
X34510000Y-16555142D01*
X34510000Y-16972858D01*
X34568463Y-17113999D01*
X34341393Y-17113999D01*
X34302000Y-17106163D01*
X34262607Y-17113999D01*
X34145929Y-17137208D01*
X34013617Y-17225615D01*
X33991302Y-17259013D01*
X33870315Y-17380000D01*
X29121685Y-17380000D01*
X28758702Y-17017018D01*
X28736384Y-16983616D01*
X28604072Y-16895209D01*
X28487394Y-16872000D01*
X28448000Y-16864164D01*
X28408606Y-16872000D01*
X25199107Y-16872000D01*
X25175227Y-16848120D01*
X24991456Y-16772000D01*
X24792544Y-16772000D01*
X24608773Y-16848120D01*
X24468120Y-16988773D01*
X24392000Y-17172544D01*
X24392000Y-17371456D01*
X24468120Y-17555227D01*
X24608773Y-17695880D01*
X24792544Y-17772000D01*
X24991456Y-17772000D01*
X25175227Y-17695880D01*
X25199107Y-17672000D01*
X28282315Y-17672000D01*
X28645301Y-18034987D01*
X28667616Y-18068384D01*
X28795752Y-18154001D01*
X24893991Y-18154001D01*
X24854598Y-18146165D01*
X24815206Y-18154001D01*
X24815205Y-18154001D01*
X24698527Y-18177210D01*
X24672800Y-18194400D01*
X24614744Y-18194400D01*
X24430973Y-18270520D01*
X24290320Y-18411173D01*
X24250000Y-18508515D01*
X24250000Y-13400536D01*
X24230781Y-13354137D01*
X24220989Y-13304910D01*
X24193105Y-13263178D01*
X24173880Y-13216765D01*
X24138358Y-13181243D01*
X24110480Y-13139520D01*
X24068757Y-13111642D01*
X24033227Y-13076112D01*
X23986802Y-13056882D01*
X23945089Y-13029011D01*
X23895886Y-13019224D01*
X23849456Y-12999992D01*
X23799202Y-12999992D01*
X23750000Y-12990205D01*
X23700798Y-12999992D01*
X23650544Y-12999992D01*
X23604115Y-13019224D01*
X23554910Y-13029011D01*
X23513196Y-13056883D01*
X23466773Y-13076112D01*
X23431243Y-13111642D01*
X23389520Y-13139520D01*
X23361642Y-13181243D01*
X23326120Y-13216765D01*
X23306894Y-13263180D01*
X23279011Y-13304911D01*
X23269220Y-13354136D01*
X23250000Y-13400536D01*
X23250000Y-13450758D01*
X23250001Y-13900542D01*
X23250000Y-13900544D01*
X23250000Y-13950758D01*
X23250001Y-20200754D01*
X23240205Y-20250000D01*
X23277564Y-20437810D01*
X23279012Y-20445090D01*
X23389521Y-20610480D01*
X23431269Y-20638375D01*
X25611623Y-22818729D01*
X25639520Y-22860480D01*
X25804910Y-22970989D01*
X26000000Y-23009796D01*
X26049246Y-23000000D01*
X29849456Y-23000000D01*
X29895848Y-22980784D01*
X29945090Y-22970989D01*
X29986835Y-22943096D01*
X30033227Y-22923880D01*
X30068732Y-22888375D01*
X30110480Y-22860480D01*
X30138375Y-22818732D01*
X30173880Y-22783227D01*
X30193096Y-22736835D01*
X30220989Y-22695090D01*
X30230784Y-22645848D01*
X30250000Y-22599456D01*
X30250000Y-22549243D01*
X30259795Y-22500000D01*
X30250000Y-22450757D01*
X30250000Y-22400544D01*
X30230784Y-22354152D01*
X30220989Y-22304910D01*
X30193096Y-22263165D01*
X30173880Y-22216773D01*
X30138374Y-22181267D01*
X30110480Y-22139520D01*
X30068732Y-22111625D01*
X30033227Y-22076120D01*
X29986835Y-22056904D01*
X29945090Y-22029011D01*
X29895848Y-22019216D01*
X29849456Y-22000000D01*
X26207106Y-22000000D01*
X24250000Y-20042894D01*
X24250000Y-19623107D01*
X24354773Y-19727880D01*
X24538544Y-19804000D01*
X24737456Y-19804000D01*
X24921227Y-19727880D01*
X24945107Y-19704000D01*
X25411406Y-19704000D01*
X25450800Y-19711836D01*
X25490194Y-19704000D01*
X25606872Y-19680791D01*
X25739184Y-19592384D01*
X25761502Y-19558982D01*
X25946685Y-19373800D01*
X32803516Y-19373800D01*
X34410001Y-20980286D01*
X34410001Y-21054607D01*
X34402165Y-21094001D01*
X34410001Y-21133394D01*
X34433210Y-21250072D01*
X34521617Y-21382385D01*
X34555020Y-21404704D01*
X34590680Y-21440364D01*
X34510000Y-21635142D01*
X34510000Y-22052858D01*
X34669853Y-22438777D01*
X34965223Y-22734147D01*
X35351142Y-22894000D01*
X35768858Y-22894000D01*
X36154777Y-22734147D01*
X36450147Y-22438777D01*
X36600001Y-22076998D01*
X36600001Y-23600000D01*
X400000Y-23600000D01*
X400000Y-11888123D01*
X733600Y-11888123D01*
X733600Y-12445077D01*
X946737Y-12959637D01*
X1340563Y-13353463D01*
X1855123Y-13566600D01*
X2412077Y-13566600D01*
X2926637Y-13353463D01*
X3320463Y-12959637D01*
X3533600Y-12445077D01*
X3533600Y-11888123D01*
X3320463Y-11373563D01*
X2926637Y-10979737D01*
X2412077Y-10766600D01*
X1855123Y-10766600D01*
X1340563Y-10979737D01*
X946737Y-11373563D01*
X733600Y-11888123D01*
X400000Y-11888123D01*
X400000Y-3912523D01*
X32509000Y-3912523D01*
X32509000Y-4469477D01*
X32722137Y-4984037D01*
X33115963Y-5377863D01*
X33630523Y-5591000D01*
X34187477Y-5591000D01*
X34702037Y-5377863D01*
X35095863Y-4984037D01*
X35309000Y-4469477D01*
X35309000Y-3912523D01*
X35095863Y-3397963D01*
X34702037Y-3004137D01*
X34187477Y-2791000D01*
X33630523Y-2791000D01*
X33115963Y-3004137D01*
X32722137Y-3397963D01*
X32509000Y-3912523D01*
X400000Y-3912523D01*
X400000Y-400000D01*
X36600000Y-400000D01*
X36600001Y-13991001D01*
X36600001Y-13991001D01*
G37*
X36600001Y-13991001D02*
X36450147Y-13629223D01*
X36154777Y-13333853D01*
X35768858Y-13174000D01*
X35351142Y-13174000D01*
X34965223Y-13333853D01*
X34669853Y-13629223D01*
X34589174Y-13824000D01*
X34368507Y-13824000D01*
X34319227Y-13774720D01*
X34135456Y-13698600D01*
X33936544Y-13698600D01*
X33752773Y-13774720D01*
X33612120Y-13915373D01*
X33536000Y-14099144D01*
X33536000Y-14298056D01*
X33612120Y-14481827D01*
X33752773Y-14622480D01*
X33936544Y-14698600D01*
X34135456Y-14698600D01*
X34315557Y-14624000D01*
X34589174Y-14624000D01*
X34669853Y-14818777D01*
X34965223Y-15114147D01*
X35351142Y-15274000D01*
X35768858Y-15274000D01*
X36154777Y-15114147D01*
X36450147Y-14818777D01*
X36600001Y-14456999D01*
X36600001Y-16531002D01*
X36450147Y-16169223D01*
X36154777Y-15873853D01*
X35768858Y-15714000D01*
X35351142Y-15714000D01*
X34965223Y-15873853D01*
X34669853Y-16169223D01*
X34510000Y-16555142D01*
X34510000Y-16972858D01*
X34568463Y-17113999D01*
X34341393Y-17113999D01*
X34302000Y-17106163D01*
X34262607Y-17113999D01*
X34145929Y-17137208D01*
X34013617Y-17225615D01*
X33991302Y-17259013D01*
X33870315Y-17380000D01*
X29121685Y-17380000D01*
X28758702Y-17017018D01*
X28736384Y-16983616D01*
X28604072Y-16895209D01*
X28487394Y-16872000D01*
X28448000Y-16864164D01*
X28408606Y-16872000D01*
X25199107Y-16872000D01*
X25175227Y-16848120D01*
X24991456Y-16772000D01*
X24792544Y-16772000D01*
X24608773Y-16848120D01*
X24468120Y-16988773D01*
X24392000Y-17172544D01*
X24392000Y-17371456D01*
X24468120Y-17555227D01*
X24608773Y-17695880D01*
X24792544Y-17772000D01*
X24991456Y-17772000D01*
X25175227Y-17695880D01*
X25199107Y-17672000D01*
X28282315Y-17672000D01*
X28645301Y-18034987D01*
X28667616Y-18068384D01*
X28795752Y-18154001D01*
X24893991Y-18154001D01*
X24854598Y-18146165D01*
X24815206Y-18154001D01*
X24815205Y-18154001D01*
X24698527Y-18177210D01*
X24672800Y-18194400D01*
X24614744Y-18194400D01*
X24430973Y-18270520D01*
X24290320Y-18411173D01*
X24250000Y-18508515D01*
X24250000Y-13400536D01*
X24230781Y-13354137D01*
X24220989Y-13304910D01*
X24193105Y-13263178D01*
X24173880Y-13216765D01*
X24138358Y-13181243D01*
X24110480Y-13139520D01*
X24068757Y-13111642D01*
X24033227Y-13076112D01*
X23986802Y-13056882D01*
X23945089Y-13029011D01*
X23895886Y-13019224D01*
X23849456Y-12999992D01*
X23799202Y-12999992D01*
X23750000Y-12990205D01*
X23700798Y-12999992D01*
X23650544Y-12999992D01*
X23604115Y-13019224D01*
X23554910Y-13029011D01*
X23513196Y-13056883D01*
X23466773Y-13076112D01*
X23431243Y-13111642D01*
X23389520Y-13139520D01*
X23361642Y-13181243D01*
X23326120Y-13216765D01*
X23306894Y-13263180D01*
X23279011Y-13304911D01*
X23269220Y-13354136D01*
X23250000Y-13400536D01*
X23250000Y-13450758D01*
X23250001Y-13900542D01*
X23250000Y-13900544D01*
X23250000Y-13950758D01*
X23250001Y-20200754D01*
X23240205Y-20250000D01*
X23277564Y-20437810D01*
X23279012Y-20445090D01*
X23389521Y-20610480D01*
X23431269Y-20638375D01*
X25611623Y-22818729D01*
X25639520Y-22860480D01*
X25804910Y-22970989D01*
X26000000Y-23009796D01*
X26049246Y-23000000D01*
X29849456Y-23000000D01*
X29895848Y-22980784D01*
X29945090Y-22970989D01*
X29986835Y-22943096D01*
X30033227Y-22923880D01*
X30068732Y-22888375D01*
X30110480Y-22860480D01*
X30138375Y-22818732D01*
X30173880Y-22783227D01*
X30193096Y-22736835D01*
X30220989Y-22695090D01*
X30230784Y-22645848D01*
X30250000Y-22599456D01*
X30250000Y-22549243D01*
X30259795Y-22500000D01*
X30250000Y-22450757D01*
X30250000Y-22400544D01*
X30230784Y-22354152D01*
X30220989Y-22304910D01*
X30193096Y-22263165D01*
X30173880Y-22216773D01*
X30138374Y-22181267D01*
X30110480Y-22139520D01*
X30068732Y-22111625D01*
X30033227Y-22076120D01*
X29986835Y-22056904D01*
X29945090Y-22029011D01*
X29895848Y-22019216D01*
X29849456Y-22000000D01*
X26207106Y-22000000D01*
X24250000Y-20042894D01*
X24250000Y-19623107D01*
X24354773Y-19727880D01*
X24538544Y-19804000D01*
X24737456Y-19804000D01*
X24921227Y-19727880D01*
X24945107Y-19704000D01*
X25411406Y-19704000D01*
X25450800Y-19711836D01*
X25490194Y-19704000D01*
X25606872Y-19680791D01*
X25739184Y-19592384D01*
X25761502Y-19558982D01*
X25946685Y-19373800D01*
X32803516Y-19373800D01*
X34410001Y-20980286D01*
X34410001Y-21054607D01*
X34402165Y-21094001D01*
X34410001Y-21133394D01*
X34433210Y-21250072D01*
X34521617Y-21382385D01*
X34555020Y-21404704D01*
X34590680Y-21440364D01*
X34510000Y-21635142D01*
X34510000Y-22052858D01*
X34669853Y-22438777D01*
X34965223Y-22734147D01*
X35351142Y-22894000D01*
X35768858Y-22894000D01*
X36154777Y-22734147D01*
X36450147Y-22438777D01*
X36600001Y-22076998D01*
X36600001Y-23600000D01*
X400000Y-23600000D01*
X400000Y-11888123D01*
X733600Y-11888123D01*
X733600Y-12445077D01*
X946737Y-12959637D01*
X1340563Y-13353463D01*
X1855123Y-13566600D01*
X2412077Y-13566600D01*
X2926637Y-13353463D01*
X3320463Y-12959637D01*
X3533600Y-12445077D01*
X3533600Y-11888123D01*
X3320463Y-11373563D01*
X2926637Y-10979737D01*
X2412077Y-10766600D01*
X1855123Y-10766600D01*
X1340563Y-10979737D01*
X946737Y-11373563D01*
X733600Y-11888123D01*
X400000Y-11888123D01*
X400000Y-3912523D01*
X32509000Y-3912523D01*
X32509000Y-4469477D01*
X32722137Y-4984037D01*
X33115963Y-5377863D01*
X33630523Y-5591000D01*
X34187477Y-5591000D01*
X34702037Y-5377863D01*
X35095863Y-4984037D01*
X35309000Y-4469477D01*
X35309000Y-3912523D01*
X35095863Y-3397963D01*
X34702037Y-3004137D01*
X34187477Y-2791000D01*
X33630523Y-2791000D01*
X33115963Y-3004137D01*
X32722137Y-3397963D01*
X32509000Y-3912523D01*
X400000Y-3912523D01*
X400000Y-400000D01*
X36600000Y-400000D01*
X36600001Y-13991001D01*
G04 #@! TD*
M02*
