G04 #@! TF.GenerationSoftware,KiCad,Pcbnew,5.0.1-33cea8e~68~ubuntu16.04.1*
G04 #@! TF.CreationDate,2019-02-13T12:33:41-05:00*
G04 #@! TF.ProjectId,RS485SPIConverter,5253343835535049436F6E7665727465,rev?*
G04 #@! TF.SameCoordinates,Original*
G04 #@! TF.FileFunction,Soldermask,Bot*
G04 #@! TF.FilePolarity,Negative*
%FSLAX46Y46*%
G04 Gerber Fmt 4.6, Leading zero omitted, Abs format (unit mm)*
G04 Created by KiCad (PCBNEW 5.0.1-33cea8e~68~ubuntu16.04.1) date Wed 13 Feb 2019 12:33:41 PM EST*
%MOMM*%
%LPD*%
G01*
G04 APERTURE LIST*
%ADD10C,0.100000*%
G04 APERTURE END LIST*
D10*
G36*
X35793643Y-21073781D02*
X35939415Y-21134162D01*
X36070611Y-21221824D01*
X36182176Y-21333389D01*
X36269838Y-21464585D01*
X36330219Y-21610357D01*
X36361000Y-21765107D01*
X36361000Y-21922893D01*
X36330219Y-22077643D01*
X36269838Y-22223415D01*
X36182176Y-22354611D01*
X36070611Y-22466176D01*
X35939415Y-22553838D01*
X35793643Y-22614219D01*
X35638893Y-22645000D01*
X35481107Y-22645000D01*
X35326357Y-22614219D01*
X35180585Y-22553838D01*
X35049389Y-22466176D01*
X34937824Y-22354611D01*
X34850162Y-22223415D01*
X34789781Y-22077643D01*
X34759000Y-21922893D01*
X34759000Y-21765107D01*
X34789781Y-21610357D01*
X34850162Y-21464585D01*
X34937824Y-21333389D01*
X35049389Y-21221824D01*
X35180585Y-21134162D01*
X35326357Y-21073781D01*
X35481107Y-21043000D01*
X35638893Y-21043000D01*
X35793643Y-21073781D01*
X35793643Y-21073781D01*
G37*
G36*
X35793643Y-18533781D02*
X35939415Y-18594162D01*
X36070611Y-18681824D01*
X36182176Y-18793389D01*
X36269838Y-18924585D01*
X36330219Y-19070357D01*
X36361000Y-19225107D01*
X36361000Y-19382893D01*
X36330219Y-19537643D01*
X36269838Y-19683415D01*
X36182176Y-19814611D01*
X36070611Y-19926176D01*
X35939415Y-20013838D01*
X35793643Y-20074219D01*
X35638893Y-20105000D01*
X35481107Y-20105000D01*
X35326357Y-20074219D01*
X35180585Y-20013838D01*
X35049389Y-19926176D01*
X34937824Y-19814611D01*
X34850162Y-19683415D01*
X34789781Y-19537643D01*
X34759000Y-19382893D01*
X34759000Y-19225107D01*
X34789781Y-19070357D01*
X34850162Y-18924585D01*
X34937824Y-18793389D01*
X35049389Y-18681824D01*
X35180585Y-18594162D01*
X35326357Y-18533781D01*
X35481107Y-18503000D01*
X35638893Y-18503000D01*
X35793643Y-18533781D01*
X35793643Y-18533781D01*
G37*
G36*
X35793643Y-15993781D02*
X35939415Y-16054162D01*
X36070611Y-16141824D01*
X36182176Y-16253389D01*
X36269838Y-16384585D01*
X36330219Y-16530357D01*
X36361000Y-16685107D01*
X36361000Y-16842893D01*
X36330219Y-16997643D01*
X36269838Y-17143415D01*
X36182176Y-17274611D01*
X36070611Y-17386176D01*
X35939415Y-17473838D01*
X35793643Y-17534219D01*
X35638893Y-17565000D01*
X35481107Y-17565000D01*
X35326357Y-17534219D01*
X35180585Y-17473838D01*
X35049389Y-17386176D01*
X34937824Y-17274611D01*
X34850162Y-17143415D01*
X34789781Y-16997643D01*
X34759000Y-16842893D01*
X34759000Y-16685107D01*
X34789781Y-16530357D01*
X34850162Y-16384585D01*
X34937824Y-16253389D01*
X35049389Y-16141824D01*
X35180585Y-16054162D01*
X35326357Y-15993781D01*
X35481107Y-15963000D01*
X35638893Y-15963000D01*
X35793643Y-15993781D01*
X35793643Y-15993781D01*
G37*
G36*
X35793643Y-13453781D02*
X35939415Y-13514162D01*
X36070611Y-13601824D01*
X36182176Y-13713389D01*
X36269838Y-13844585D01*
X36330219Y-13990357D01*
X36361000Y-14145107D01*
X36361000Y-14302893D01*
X36330219Y-14457643D01*
X36269838Y-14603415D01*
X36182176Y-14734611D01*
X36070611Y-14846176D01*
X35939415Y-14933838D01*
X35793643Y-14994219D01*
X35638893Y-15025000D01*
X35481107Y-15025000D01*
X35326357Y-14994219D01*
X35180585Y-14933838D01*
X35049389Y-14846176D01*
X34937824Y-14734611D01*
X34850162Y-14603415D01*
X34789781Y-14457643D01*
X34759000Y-14302893D01*
X34759000Y-14145107D01*
X34789781Y-13990357D01*
X34850162Y-13844585D01*
X34937824Y-13713389D01*
X35049389Y-13601824D01*
X35180585Y-13514162D01*
X35326357Y-13453781D01*
X35481107Y-13423000D01*
X35638893Y-13423000D01*
X35793643Y-13453781D01*
X35793643Y-13453781D01*
G37*
G36*
X2469334Y-11059832D02*
X2678802Y-11146596D01*
X2867323Y-11272562D01*
X3027638Y-11432877D01*
X3153604Y-11621398D01*
X3240368Y-11830866D01*
X3284600Y-12053235D01*
X3284600Y-12279965D01*
X3240368Y-12502334D01*
X3153604Y-12711802D01*
X3027638Y-12900323D01*
X2867323Y-13060638D01*
X2678802Y-13186604D01*
X2469334Y-13273368D01*
X2246965Y-13317600D01*
X2020235Y-13317600D01*
X1797866Y-13273368D01*
X1588398Y-13186604D01*
X1399877Y-13060638D01*
X1239562Y-12900323D01*
X1113596Y-12711802D01*
X1026832Y-12502334D01*
X982600Y-12279965D01*
X982600Y-12053235D01*
X1026832Y-11830866D01*
X1113596Y-11621398D01*
X1239562Y-11432877D01*
X1399877Y-11272562D01*
X1588398Y-11146596D01*
X1797866Y-11059832D01*
X2020235Y-11015600D01*
X2246965Y-11015600D01*
X2469334Y-11059832D01*
X2469334Y-11059832D01*
G37*
G36*
X35793643Y-10913781D02*
X35939415Y-10974162D01*
X36070611Y-11061824D01*
X36182176Y-11173389D01*
X36269838Y-11304585D01*
X36330219Y-11450357D01*
X36361000Y-11605107D01*
X36361000Y-11762893D01*
X36330219Y-11917643D01*
X36269838Y-12063415D01*
X36182176Y-12194611D01*
X36070611Y-12306176D01*
X35939415Y-12393838D01*
X35793643Y-12454219D01*
X35638893Y-12485000D01*
X35481107Y-12485000D01*
X35326357Y-12454219D01*
X35180585Y-12393838D01*
X35049389Y-12306176D01*
X34937824Y-12194611D01*
X34850162Y-12063415D01*
X34789781Y-11917643D01*
X34759000Y-11762893D01*
X34759000Y-11605107D01*
X34789781Y-11450357D01*
X34850162Y-11304585D01*
X34937824Y-11173389D01*
X35049389Y-11061824D01*
X35180585Y-10974162D01*
X35326357Y-10913781D01*
X35481107Y-10883000D01*
X35638893Y-10883000D01*
X35793643Y-10913781D01*
X35793643Y-10913781D01*
G37*
G36*
X34244734Y-3084232D02*
X34454202Y-3170996D01*
X34642723Y-3296962D01*
X34803038Y-3457277D01*
X34929004Y-3645798D01*
X35015768Y-3855266D01*
X35060000Y-4077635D01*
X35060000Y-4304365D01*
X35015768Y-4526734D01*
X34929004Y-4736202D01*
X34803038Y-4924723D01*
X34642723Y-5085038D01*
X34454202Y-5211004D01*
X34244734Y-5297768D01*
X34022365Y-5342000D01*
X33795635Y-5342000D01*
X33573266Y-5297768D01*
X33363798Y-5211004D01*
X33175277Y-5085038D01*
X33014962Y-4924723D01*
X32888996Y-4736202D01*
X32802232Y-4526734D01*
X32758000Y-4304365D01*
X32758000Y-4077635D01*
X32802232Y-3855266D01*
X32888996Y-3645798D01*
X33014962Y-3457277D01*
X33175277Y-3296962D01*
X33363798Y-3170996D01*
X33573266Y-3084232D01*
X33795635Y-3040000D01*
X34022365Y-3040000D01*
X34244734Y-3084232D01*
X34244734Y-3084232D01*
G37*
M02*
