M48
;DRILL file {KiCad 5.0.1-33cea8e~68~ubuntu16.04.1} date Wed 13 Feb 2019 12:33:38 PM EST
;FORMAT={-:-/ absolute / inch / decimal}
FMAT,2
INCH,TZ
T1C0.0138
T2C0.0866
%
G90
G05
M72
T1
X0.2756Y-0.128
X0.2756Y-0.1457
X0.2756Y-0.1634
X0.2756Y-0.1831
X0.2756Y-0.2008
X0.2756Y-0.2185
X0.2756Y-0.2382
X0.2756Y-0.3524
X0.2756Y-0.3701
X0.2756Y-0.3878
X0.2815Y-0.4055
X0.5118Y-0.565
X0.5118Y-0.5827
X0.5121Y-0.5456
X0.5121Y-0.6004
X0.5121Y-0.7346
X0.5121Y-0.7514
X0.5121Y-0.7704
X0.5121Y-0.7893
X0.725Y-0.6713
X0.7368Y-0.6831
X0.7486Y-0.6949
X0.7605Y-0.7067
X0.8957Y-0.5689
X0.9055Y-0.3366
X0.9055Y-0.3563
X0.9055Y-0.374
X0.9055Y-0.3917
X0.935Y-0.5315
X0.935Y-0.5512
X0.935Y-0.5709
X0.97Y-0.76
X0.973Y-0.736
X0.98Y-0.68
X0.9854Y-0.4634
X0.9862Y-0.5236
X1.0442Y-0.7696
X1.0453Y-0.6516
X1.0866Y-0.4685
X1.0886Y-0.5138
X1.1024Y-0.7087
X1.122Y-0.4921
X1.1319Y-0.8858
X1.1516Y-0.8858
X1.1575Y-0.6516
X1.1603Y-0.7717
X1.1614Y-0.5177
X1.1634Y-0.4705
X1.1713Y-0.8858
X1.2795Y-0.5236
X1.313Y-0.6299
X1.34Y-0.559
T2
X0.084Y-0.479
X1.335Y-0.165
T0
M30
