G04 #@! TF.GenerationSoftware,KiCad,Pcbnew,5.0.1-33cea8e~68~ubuntu16.04.1*
G04 #@! TF.CreationDate,2019-02-13T12:33:41-05:00*
G04 #@! TF.ProjectId,RS485SPIConverter,5253343835535049436F6E7665727465,rev?*
G04 #@! TF.SameCoordinates,Original*
G04 #@! TF.FileFunction,Legend,Bot*
G04 #@! TF.FilePolarity,Positive*
%FSLAX46Y46*%
G04 Gerber Fmt 4.6, Leading zero omitted, Abs format (unit mm)*
G04 Created by KiCad (PCBNEW 5.0.1-33cea8e~68~ubuntu16.04.1) date Wed 13 Feb 2019 12:33:41 PM EST*
%MOMM*%
%LPD*%
G01*
G04 APERTURE LIST*
%ADD10C,0.120000*%
%ADD11C,0.100000*%
%ADD12C,0.150000*%
G04 APERTURE END LIST*
D10*
G04 #@! TO.C,TP5*
X36510000Y-11684000D02*
G75*
G03X36510000Y-11684000I-950000J0D01*
G01*
G04 #@! TO.C,TP1*
X36510000Y-16764000D02*
G75*
G03X36510000Y-16764000I-950000J0D01*
G01*
G04 #@! TO.C,TP2*
X36510000Y-19304000D02*
G75*
G03X36510000Y-19304000I-950000J0D01*
G01*
G04 #@! TO.C,TP3*
X36510000Y-21844000D02*
G75*
G03X36510000Y-21844000I-950000J0D01*
G01*
G04 #@! TO.C,TP4*
X36510000Y-14224000D02*
G75*
G03X36510000Y-14224000I-950000J0D01*
G01*
G04 #@! TO.C,TP5*
D11*
X35560000Y-13332000D02*
X35560000Y-13332000D01*
X35560000Y-13332000D02*
X35560000Y-13332000D01*
X35560000Y-13332000D02*
X35560000Y-13332000D01*
X35560000Y-13332000D01*
X35560000Y-13332000D01*
X35560000Y-13332000D01*
X35560000Y-13332000D01*
X35560000Y-13332000D01*
X35560000Y-13332000D01*
X35560000Y-13332000D01*
X35560000Y-13332000D01*
X35560000Y-13332000D01*
X35560000Y-13332000D02*
X35560000Y-13332000D01*
X35560000Y-13332000D01*
X35560000Y-13332000D01*
X35560000Y-13332000D01*
X35560000Y-13332000D01*
X35560000Y-13332000D01*
X35560000Y-13332000D01*
X35560000Y-13332000D01*
X35560000Y-13332000D01*
X35560000Y-13332000D01*
X35560000Y-13332000D01*
X35560000Y-13332000D01*
X35560000Y-13332000D01*
X35560000Y-13332000D01*
X35560000Y-13332000D01*
D12*
G04 #@! TO.C,TP1*
D11*
X35560000Y-18412000D02*
X35560000Y-18412000D01*
X35560000Y-18412000D02*
X35560000Y-18412000D01*
X35560000Y-18412000D02*
X35560000Y-18412000D01*
X35560000Y-18412000D01*
X35560000Y-18412000D01*
X35560000Y-18412000D01*
X35560000Y-18412000D01*
X35560000Y-18412000D01*
X35560000Y-18412000D01*
X35560000Y-18412000D01*
X35560000Y-18412000D01*
X35560000Y-18412000D01*
X35560000Y-18412000D02*
X35560000Y-18412000D01*
X35560000Y-18412000D02*
X35560000Y-18412000D01*
X35560000Y-18412000D01*
X35560000Y-18412000D01*
X35560000Y-18412000D01*
D12*
G04 #@! TO.C,TP2*
D11*
X35560000Y-20952000D02*
X35560000Y-20952000D01*
X35560000Y-20952000D02*
X35560000Y-20952000D01*
X35560000Y-20952000D02*
X35560000Y-20952000D01*
X35560000Y-20952000D01*
X35560000Y-20952000D01*
X35560000Y-20952000D01*
X35560000Y-20952000D01*
X35560000Y-20952000D01*
X35560000Y-20952000D01*
X35560000Y-20952000D01*
X35560000Y-20952000D01*
X35560000Y-20952000D01*
X35560000Y-20952000D02*
X35560000Y-20952000D01*
X35560000Y-20952000D01*
X35560000Y-20952000D01*
X35560000Y-20952000D01*
X35560000Y-20952000D01*
X35560000Y-20952000D01*
X35560000Y-20952000D01*
X35560000Y-20952000D01*
X35560000Y-20952000D01*
X35560000Y-20952000D01*
D12*
G04 #@! TO.C,TP3*
D11*
X35560000Y-23492000D02*
X35560000Y-23492000D01*
X35560000Y-23492000D02*
X35560000Y-23492000D01*
X35560000Y-23492000D02*
X35560000Y-23492000D01*
X35560000Y-23492000D01*
X35560000Y-23492000D01*
X35560000Y-23492000D01*
X35560000Y-23492000D01*
X35560000Y-23492000D01*
X35560000Y-23492000D01*
X35560000Y-23492000D01*
X35560000Y-23492000D01*
X35560000Y-23492000D01*
X35560000Y-23492000D02*
X35560000Y-23492000D01*
X35560000Y-23492000D01*
X35560000Y-23492000D01*
X35560000Y-23492000D01*
X35560000Y-23492000D01*
X35560000Y-23492000D01*
X35560000Y-23492000D01*
X35560000Y-23492000D01*
X35560000Y-23492000D01*
X35560000Y-23492000D01*
X35560000Y-23492000D01*
X35560000Y-23492000D01*
X35560000Y-23492000D01*
D12*
G04 #@! TO.C,TP4*
D11*
X35560000Y-15872000D02*
X35560000Y-15872000D01*
X35560000Y-15872000D02*
X35560000Y-15872000D01*
X35560000Y-15872000D02*
X35560000Y-15872000D01*
X35560000Y-15872000D01*
X35560000Y-15872000D01*
X35560000Y-15872000D01*
X35560000Y-15872000D01*
X35560000Y-15872000D01*
X35560000Y-15872000D01*
X35560000Y-15872000D01*
X35560000Y-15872000D01*
X35560000Y-15872000D01*
X35560000Y-15872000D02*
X35560000Y-15872000D01*
X35560000Y-15872000D02*
X35560000Y-15872000D01*
X35560000Y-15872000D01*
D12*
G04 #@! TD*
M02*
