G04 #@! TF.GenerationSoftware,KiCad,Pcbnew,5.0.1-33cea8e~68~ubuntu16.04.1*
G04 #@! TF.CreationDate,2019-02-13T12:33:41-05:00*
G04 #@! TF.ProjectId,RS485SPIConverter,5253343835535049436F6E7665727465,rev?*
G04 #@! TF.SameCoordinates,Original*
G04 #@! TF.FileFunction,Legend,Top*
G04 #@! TF.FilePolarity,Positive*
%FSLAX46Y46*%
G04 Gerber Fmt 4.6, Leading zero omitted, Abs format (unit mm)*
G04 Created by KiCad (PCBNEW 5.0.1-33cea8e~68~ubuntu16.04.1) date Wed 13 Feb 2019 12:33:41 PM EST*
%MOMM*%
%LPD*%
G01*
G04 APERTURE LIST*
%ADD10C,0.254000*%
%ADD11C,0.120000*%
%ADD12C,0.150000*%
%ADD13C,0.100000*%
G04 APERTURE END LIST*
D10*
G04 #@! TO.C,IC1*
X26975000Y-14375000D02*
G75*
G03X26975000Y-14375000I-125000J0D01*
G01*
D11*
G04 #@! TO.C,J1*
X17890000Y-4910000D02*
X17890000Y-7560000D01*
X17890000Y-7560000D02*
X20240000Y-7560000D01*
X20240000Y-7560000D02*
X20240000Y-8950000D01*
X30110000Y-4910000D02*
X30110000Y-7560000D01*
X30110000Y-7560000D02*
X27760000Y-7560000D01*
X18000000Y-490000D02*
X30000000Y-490000D01*
G04 #@! TO.C,J2*
X2000000Y-490000D02*
X14000000Y-490000D01*
X14110000Y-7560000D02*
X11760000Y-7560000D01*
X14110000Y-4910000D02*
X14110000Y-7560000D01*
X4240000Y-7560000D02*
X4240000Y-8950000D01*
X1890000Y-7560000D02*
X4240000Y-7560000D01*
X1890000Y-4910000D02*
X1890000Y-7560000D01*
G04 #@! TO.C,J3*
X18117600Y-19561640D02*
X18117600Y-16911640D01*
X18117600Y-16911640D02*
X15767600Y-16911640D01*
X15767600Y-16911640D02*
X15767600Y-15521640D01*
X1897600Y-19561640D02*
X1897600Y-16911640D01*
X1897600Y-16911640D02*
X4247600Y-16911640D01*
X18007600Y-23981640D02*
X2007600Y-23981640D01*
G04 #@! TO.C,U1*
X30135000Y-15390000D02*
X30610000Y-15390000D01*
X30610000Y-15390000D02*
X30610000Y-15865000D01*
X25865000Y-20610000D02*
X25390000Y-20610000D01*
X25390000Y-20610000D02*
X25390000Y-20135000D01*
X30135000Y-20610000D02*
X30610000Y-20610000D01*
X30610000Y-20610000D02*
X30610000Y-20135000D01*
X25865000Y-15390000D02*
X25390000Y-15390000D01*
G04 #@! TO.C,U2*
X21600000Y-20110000D02*
X23400000Y-20110000D01*
X23400000Y-16890000D02*
X20950000Y-16890000D01*
G04 #@! TO.C,REF\002A\002A*
D12*
X800266Y-9418980D02*
X466933Y-8942790D01*
X228838Y-9418980D02*
X228838Y-8418980D01*
X609790Y-8418980D01*
X705028Y-8466600D01*
X752647Y-8514219D01*
X800266Y-8609457D01*
X800266Y-8752314D01*
X752647Y-8847552D01*
X705028Y-8895171D01*
X609790Y-8942790D01*
X228838Y-8942790D01*
X1228838Y-8895171D02*
X1562171Y-8895171D01*
X1705028Y-9418980D02*
X1228838Y-9418980D01*
X1228838Y-8418980D01*
X1705028Y-8418980D01*
X2466933Y-8895171D02*
X2133599Y-8895171D01*
X2133599Y-9418980D02*
X2133599Y-8418980D01*
X2609790Y-8418980D01*
X3133599Y-8418980D02*
X3133599Y-8657076D01*
X2895504Y-8561838D02*
X3133599Y-8657076D01*
X3371695Y-8561838D01*
X2990742Y-8847552D02*
X3133599Y-8657076D01*
X3276457Y-8847552D01*
X3895504Y-8418980D02*
X3895504Y-8657076D01*
X3657409Y-8561838D02*
X3895504Y-8657076D01*
X4133599Y-8561838D01*
X3752647Y-8847552D02*
X3895504Y-8657076D01*
X4038361Y-8847552D01*
G04 #@! TO.C,C1*
D13*
X25515000Y-10030000D02*
X25515000Y-10030000D01*
X25515000Y-10030000D01*
X25515000Y-10030000D01*
X25515000Y-10030000D01*
X25515000Y-10030000D01*
X25515000Y-10030000D01*
X25515000Y-10030000D01*
X25515000Y-10030000D01*
X25515000Y-10030000D01*
X25515000Y-10030000D01*
X25515000Y-10030000D01*
X25515000Y-10030000D01*
X25515000Y-10030000D01*
X25515000Y-10030000D01*
X25515000Y-10030000D01*
X25515000Y-10030000D02*
X25515000Y-10030000D01*
X25515000Y-10030000D02*
X25515000Y-10030000D01*
X25515000Y-10030000D01*
X25515000Y-10030000D01*
X25515000Y-10030000D01*
D12*
G04 #@! TO.C,C2*
D13*
X18630000Y-17515000D02*
X18630000Y-17515000D01*
X18630000Y-17515000D01*
X18630000Y-17515000D01*
X18630000Y-17515000D01*
X18630000Y-17515000D01*
X18630000Y-17515000D01*
X18630000Y-17515000D01*
X18630000Y-17515000D01*
X18630000Y-17515000D01*
X18630000Y-17515000D01*
X18630000Y-17515000D01*
X18630000Y-17515000D01*
X18630000Y-17515000D01*
X18630000Y-17515000D01*
X18630000Y-17515000D01*
X18630000Y-17515000D02*
X18630000Y-17515000D01*
X18630000Y-17515000D01*
X18630000Y-17515000D01*
X18630000Y-17515000D01*
X18630000Y-17515000D01*
X18630000Y-17515000D01*
X18630000Y-17515000D01*
X18630000Y-17515000D01*
X18630000Y-17515000D01*
X18630000Y-17515000D01*
D12*
G04 #@! TO.C,C3*
D13*
X33570000Y-18315000D02*
X33570000Y-18315000D01*
X33570000Y-18315000D01*
X33570000Y-18315000D01*
X33570000Y-18315000D01*
X33570000Y-18315000D01*
X33570000Y-18315000D01*
X33570000Y-18315000D01*
X33570000Y-18315000D01*
X33570000Y-18315000D01*
X33570000Y-18315000D01*
X33570000Y-18315000D01*
X33570000Y-18315000D01*
X33570000Y-18315000D01*
X33570000Y-18315000D01*
X33570000Y-18315000D01*
X33570000Y-18315000D02*
X33570000Y-18315000D01*
X33570000Y-18315000D01*
X33570000Y-18315000D01*
X33570000Y-18315000D01*
X33570000Y-18315000D01*
X33570000Y-18315000D01*
X33570000Y-18315000D01*
X33570000Y-18315000D01*
X33570000Y-18315000D01*
X33570000Y-18315000D01*
X33570000Y-18315000D01*
X33570000Y-18315000D01*
X33570000Y-18315000D01*
D12*
G04 #@! TO.C,C4*
D13*
X32800000Y-17970000D02*
X32800000Y-17970000D01*
X32800000Y-17970000D01*
X32800000Y-17970000D01*
X32800000Y-17970000D01*
X32800000Y-17970000D01*
X32800000Y-17970000D01*
X32800000Y-17970000D01*
X32800000Y-17970000D01*
X32800000Y-17970000D01*
X32800000Y-17970000D01*
X32800000Y-17970000D01*
X32800000Y-17970000D01*
X32800000Y-17970000D01*
X32800000Y-17970000D01*
X32800000Y-17970000D01*
X32800000Y-17970000D02*
X32800000Y-17970000D01*
X32800000Y-17970000D02*
X32800000Y-17970000D01*
X32800000Y-17970000D01*
D12*
G04 #@! TO.C,C5*
D13*
X23920000Y-15550000D02*
X23920000Y-15550000D01*
X23920000Y-15550000D01*
X23920000Y-15550000D01*
X23920000Y-15550000D01*
X23920000Y-15550000D01*
X23920000Y-15550000D01*
X23920000Y-15550000D01*
X23920000Y-15550000D01*
X23920000Y-15550000D01*
X23920000Y-15550000D01*
X23920000Y-15550000D01*
X23920000Y-15550000D01*
X23920000Y-15550000D01*
X23920000Y-15550000D01*
X23920000Y-15550000D01*
X23920000Y-15550000D02*
X23920000Y-15550000D01*
X23920000Y-15550000D01*
X23920000Y-15550000D01*
X23920000Y-15550000D01*
X23920000Y-15550000D01*
X23920000Y-15550000D01*
X23920000Y-15550000D01*
X23920000Y-15550000D01*
X23920000Y-15550000D01*
X23920000Y-15550000D01*
X23920000Y-15550000D01*
X23920000Y-15550000D01*
X23920000Y-15550000D01*
X23920000Y-15550000D01*
X23920000Y-15550000D01*
D12*
G04 #@! TO.C,IC1*
D13*
X28500000Y-12500000D02*
X28500000Y-12500000D01*
X28500000Y-12500000D02*
X28500000Y-12500000D01*
X28500000Y-12500000D01*
X28500000Y-12500000D01*
X28500000Y-12500000D01*
X28500000Y-12500000D01*
X28500000Y-12500000D01*
X28500000Y-12500000D01*
X28500000Y-12500000D01*
X28500000Y-12500000D01*
X28500000Y-12500000D01*
X28500000Y-12500000D01*
X28500000Y-12500000D01*
X28500000Y-12500000D01*
X28500000Y-12500000D01*
X28500000Y-12500000D01*
X28500000Y-12500000D02*
X28500000Y-12500000D01*
X28500000Y-12500000D02*
X28500000Y-12500000D01*
X28500000Y-12500000D01*
X28500000Y-12500000D01*
X28500000Y-12500000D01*
D12*
G04 #@! TO.C,J1*
D13*
X24000000Y600000D02*
X24000000Y600000D01*
X24000000Y600000D01*
X24000000Y600000D01*
X24000000Y600000D01*
X24000000Y600000D01*
X24000000Y600000D02*
X24000000Y600000D01*
X24000000Y600000D02*
X24000000Y600000D01*
X24000000Y600000D01*
X24000000Y600000D01*
X24000000Y600000D01*
D12*
G04 #@! TO.C,J2*
D13*
X8000000Y600000D02*
X8000000Y600000D01*
X8000000Y600000D01*
X8000000Y600000D01*
X8000000Y600000D01*
X8000000Y600000D01*
X8000000Y600000D02*
X8000000Y600000D01*
X8000000Y600000D01*
X8000000Y600000D01*
X8000000Y600000D01*
X8000000Y600000D01*
X8000000Y600000D01*
X8000000Y600000D01*
X8000000Y600000D01*
X8000000Y600000D01*
X8000000Y600000D01*
D12*
G04 #@! TO.C,J3*
D13*
X10007600Y-25071640D02*
X10007600Y-25071640D01*
X10007600Y-25071640D01*
X10007600Y-25071640D01*
X10007600Y-25071640D01*
X10007600Y-25071640D01*
X10007600Y-25071640D02*
X10007600Y-25071640D01*
X10007600Y-25071640D01*
X10007600Y-25071640D01*
X10007600Y-25071640D01*
X10007600Y-25071640D01*
X10007600Y-25071640D01*
X10007600Y-25071640D01*
X10007600Y-25071640D01*
X10007600Y-25071640D01*
X10007600Y-25071640D01*
X10007600Y-25071640D01*
X10007600Y-25071640D01*
X10007600Y-25071640D01*
D12*
G04 #@! TO.C,R1*
D13*
X32015000Y-12830000D02*
X32015000Y-12830000D01*
X32015000Y-12830000D02*
X32015000Y-12830000D01*
X32015000Y-12830000D01*
X32015000Y-12830000D01*
X32015000Y-12830000D01*
X32015000Y-12830000D01*
X32015000Y-12830000D01*
X32015000Y-12830000D01*
X32015000Y-12830000D01*
X32015000Y-12830000D01*
X32015000Y-12830000D01*
X32015000Y-12830000D02*
X32015000Y-12830000D01*
X32015000Y-12830000D02*
X32015000Y-12830000D01*
X32015000Y-12830000D01*
X32015000Y-12830000D01*
X32015000Y-12830000D01*
D12*
G04 #@! TO.C,R2*
D13*
X25515000Y-12830000D02*
X25515000Y-12830000D01*
X25515000Y-12830000D02*
X25515000Y-12830000D01*
X25515000Y-12830000D01*
X25515000Y-12830000D01*
X25515000Y-12830000D01*
X25515000Y-12830000D01*
X25515000Y-12830000D01*
X25515000Y-12830000D01*
X25515000Y-12830000D01*
X25515000Y-12830000D01*
X25515000Y-12830000D01*
X25515000Y-12830000D02*
X25515000Y-12830000D01*
X25515000Y-12830000D01*
X25515000Y-12830000D01*
X25515000Y-12830000D01*
X25515000Y-12830000D01*
X25515000Y-12830000D01*
X25515000Y-12830000D01*
X25515000Y-12830000D01*
X25515000Y-12830000D01*
X25515000Y-12830000D01*
D12*
G04 #@! TO.C,R4*
D13*
X25600000Y-8630000D02*
X25600000Y-8630000D01*
X25600000Y-8630000D02*
X25600000Y-8630000D01*
X25600000Y-8630000D01*
X25600000Y-8630000D01*
X25600000Y-8630000D01*
X25600000Y-8630000D01*
X25600000Y-8630000D01*
X25600000Y-8630000D01*
X25600000Y-8630000D01*
X25600000Y-8630000D01*
X25600000Y-8630000D01*
X25600000Y-8630000D02*
X25600000Y-8630000D01*
X25600000Y-8630000D02*
X25600000Y-8630000D01*
X25600000Y-8630000D01*
D12*
G04 #@! TO.C,R5*
D13*
X30970000Y-9115000D02*
X30970000Y-9115000D01*
X30970000Y-9115000D02*
X30970000Y-9115000D01*
X30970000Y-9115000D01*
X30970000Y-9115000D01*
X30970000Y-9115000D01*
X30970000Y-9115000D01*
X30970000Y-9115000D01*
X30970000Y-9115000D01*
X30970000Y-9115000D01*
X30970000Y-9115000D01*
X30970000Y-9115000D01*
X30970000Y-9115000D02*
X30970000Y-9115000D01*
X30970000Y-9115000D01*
X30970000Y-9115000D01*
X30970000Y-9115000D01*
X30970000Y-9115000D01*
X30970000Y-9115000D01*
X30970000Y-9115000D01*
X30970000Y-9115000D01*
X30970000Y-9115000D01*
X30970000Y-9115000D01*
X30970000Y-9115000D01*
X30970000Y-9115000D01*
X30970000Y-9115000D01*
X30970000Y-9115000D01*
X30970000Y-9115000D01*
D12*
G04 #@! TO.C,R6*
D13*
X25370000Y-15515000D02*
X25370000Y-15515000D01*
X25370000Y-15515000D02*
X25370000Y-15515000D01*
X25370000Y-15515000D01*
X25370000Y-15515000D01*
X25370000Y-15515000D01*
X25370000Y-15515000D01*
X25370000Y-15515000D01*
X25370000Y-15515000D01*
X25370000Y-15515000D01*
X25370000Y-15515000D01*
X25370000Y-15515000D01*
X25370000Y-15515000D02*
X25370000Y-15515000D01*
X25370000Y-15515000D01*
X25370000Y-15515000D01*
X25370000Y-15515000D01*
X25370000Y-15515000D01*
X25370000Y-15515000D01*
X25370000Y-15515000D01*
X25370000Y-15515000D01*
X25370000Y-15515000D01*
X25370000Y-15515000D01*
X25370000Y-15515000D01*
X25370000Y-15515000D01*
X25370000Y-15515000D01*
X25370000Y-15515000D01*
X25370000Y-15515000D01*
X25370000Y-15515000D01*
X25370000Y-15515000D01*
X25370000Y-15515000D01*
X25370000Y-15515000D01*
X25370000Y-15515000D01*
X25370000Y-15515000D01*
D12*
G04 #@! TO.C,U1*
D13*
X28000000Y-14180000D02*
X28000000Y-14180000D01*
X28000000Y-14180000D01*
X28000000Y-14180000D01*
X28000000Y-14180000D01*
X28000000Y-14180000D01*
X28000000Y-14180000D01*
X28000000Y-14180000D01*
X28000000Y-14180000D01*
X28000000Y-14180000D01*
X28000000Y-14180000D02*
X28000000Y-14180000D01*
X28000000Y-14180000D02*
X28000000Y-14180000D01*
X28000000Y-14180000D01*
X28000000Y-14180000D01*
X28000000Y-14180000D01*
D12*
G04 #@! TO.C,U2*
D13*
X22500000Y-15600000D02*
X22500000Y-15600000D01*
X22500000Y-15600000D01*
X22500000Y-15600000D01*
X22500000Y-15600000D01*
X22500000Y-15600000D01*
X22500000Y-15600000D01*
X22500000Y-15600000D01*
X22500000Y-15600000D01*
X22500000Y-15600000D01*
X22500000Y-15600000D02*
X22500000Y-15600000D01*
X22500000Y-15600000D01*
X22500000Y-15600000D01*
X22500000Y-15600000D01*
X22500000Y-15600000D01*
X22500000Y-15600000D01*
X22500000Y-15600000D01*
X22500000Y-15600000D01*
X22500000Y-15600000D01*
X22500000Y-15600000D01*
D12*
G04 #@! TO.C,REF\002A\002A*
X32575666Y-1443380D02*
X32242333Y-967190D01*
X32004238Y-1443380D02*
X32004238Y-443380D01*
X32385190Y-443380D01*
X32480428Y-491000D01*
X32528047Y-538619D01*
X32575666Y-633857D01*
X32575666Y-776714D01*
X32528047Y-871952D01*
X32480428Y-919571D01*
X32385190Y-967190D01*
X32004238Y-967190D01*
X33004238Y-919571D02*
X33337571Y-919571D01*
X33480428Y-1443380D02*
X33004238Y-1443380D01*
X33004238Y-443380D01*
X33480428Y-443380D01*
X34242333Y-919571D02*
X33909000Y-919571D01*
X33909000Y-1443380D02*
X33909000Y-443380D01*
X34385190Y-443380D01*
X34909000Y-443380D02*
X34909000Y-681476D01*
X34670904Y-586238D02*
X34909000Y-681476D01*
X35147095Y-586238D01*
X34766142Y-871952D02*
X34909000Y-681476D01*
X35051857Y-871952D01*
X35670904Y-443380D02*
X35670904Y-681476D01*
X35432809Y-586238D02*
X35670904Y-681476D01*
X35909000Y-586238D01*
X35528047Y-871952D02*
X35670904Y-681476D01*
X35813761Y-871952D01*
G04 #@! TD*
M02*
